<?xml version="1.0" encoding="utf-8"?>
<!-- Generator: Adobe Illustrator 18.1.1, SVG Export Plug-In . SVG Version: 6.00 Build 0)  -->
<svg version="1.1" id="Layer_1" class="octicon"
    xmlns="http://www.w3.org/2000/svg" 
    xmlns:xlink="http://www.w3.org/1999/xlink" x="0px" y="0px" 
    viewBox="0 0 14 16" width="14" xml:space="preserve">
    <path fill-rule="evenodd" clip-rule="evenodd" fill="#191717" d="M14 8.77v-1.6l-1.94-.64-.45-1.09.88-1.84-1.13-1.13-1.81.91-1.09-.45-.69-1.92h-1.6l-.63 1.94-1.11.45-1.84-.88-1.13 
    1.13.91 1.81-.45 1.09L0 7.23v1.59l1.94.64.45 1.09-.88 1.84 1.13 1.13 1.81-.91 1.09.45.69 1.92h1.59l.63-1.94 1.11-.45 
    1.84.88 1.13-1.13-.92-1.81.47-1.09L14 8.75v.02zM7 
    11c-1.66 0-3-1.34-3-3s1.34-3 3-3 3 1.34 3 3-1.34 3-3 3z"/>
</svg>
